<?xml version="1.0" standalone="no"?>
<!DOCTYPE svg PUBLIC "-//W3C//DTD SVG 1.1//EN" "http://www.w3.org/Graphics/SVG/1.1/DTD/svg11.dtd" >
<svg xmlns="http://www.w3.org/2000/svg" xmlns:xlink="http://www.w3.org/1999/xlink" version="1.1">
<metadata></metadata>
<defs>
<font id="ars_maquette_probold" horiz-adv-x="1189" >
<font-face units-per-em="2048" ascent="1638" descent="-410" />
<missing-glyph horiz-adv-x="534" />
<glyph unicode="&#xfb01;" horiz-adv-x="1316" d="M37 829v232h166v43q0 154 99 245t284 91q112 -1 188 -21l-31 -233q-66 23 -120 22q-59 0 -88 -22.5t-29 -73.5v-51h221v-232h-221v-829h-303v829h-166zM889 0v1061h303v-1061h-303zM889 1192v227h303v-227h-303z" />
<glyph unicode="&#xfb02;" horiz-adv-x="1411" d="M37 829v232h166v43q0 154 99 245t284 91q112 -1 188 -21l-31 -233q-66 23 -120 22q-59 0 -88 -22.5t-29 -73.5v-51h221v-232h-221v-829h-303v829h-166zM891 315v1104h303v-1110q0 -51 21.5 -69.5t58.5 -18.5q53 0 92 21l51 -217q-82 -45 -211 -45q-188 0 -266 108 q-29 41 -39 92t-10 135z" />
<glyph horiz-adv-x="0" />
<glyph unicode="&#xd;" horiz-adv-x="534" />
<glyph horiz-adv-x="0" />
<glyph horiz-adv-x="0" />
<glyph horiz-adv-x="534" />
<glyph unicode=" "  horiz-adv-x="534" />
<glyph unicode="&#x09;" horiz-adv-x="534" />
<glyph unicode="&#xa0;" horiz-adv-x="534" />
<glyph unicode="!" horiz-adv-x="591" d="M133 0v299h326v-299h-326zM133 1001v322h326v-322l-84 -559h-158z" />
<glyph unicode="&#x22;" horiz-adv-x="931" d="M68 1229v94h329v-94l-88 -475h-153zM537 1229v94h329v-94l-88 -475h-153z" />
<glyph unicode="#" horiz-adv-x="1288" d="M72 358v170h245l50 269h-215v172h247l66 354h192l-65 -354h217l65 354h193l-66 -354h218v-172h-250l-47 -269h217v-170h-248l-66 -358h-194l65 358h-215l-65 -358h-193l64 358h-215zM512 528h217l49 269h-217z" />
<glyph unicode="$" d="M45 307l244 115q80 -178 274 -203v318q-446 90 -446 415q0 174 121.5 281.5t324.5 114.5v106h119v-113q279 -39 418 -262l-215 -125q-86 113 -203 140v-283q444 -104 444 -416q0 -168 -117.5 -282.5t-326.5 -132.5v-168h-119v165q-180 10 -314 96.5t-204 233.5zM399 977 q0 -57 40 -88t124 -53v268q-72 -2 -118 -33t-46 -94zM682 215q166 17 166 150q0 61 -42 94t-124 49v-293z" />
<glyph unicode="%" horiz-adv-x="1597" d="M66 993q0 145 100 246.5t246 101.5q94 0 173 -46t125 -126t46 -176q0 -145 -100.5 -245.5t-243.5 -100.5q-145 0 -245.5 100.5t-100.5 245.5zM264 993q0 -41 18.5 -74.5t52.5 -54t77 -20.5q61 0 103 43t42 106.5t-42 106.5t-103 43q-63 0 -105.5 -43t-42.5 -107zM332 0 l704 1323h232l-707 -1323h-229zM844 330q0 94 46 174t125 126t173 46q145 0 245.5 -100.5t100.5 -245.5t-100.5 -246.5t-245.5 -101.5q-143 0 -243.5 101t-100.5 247zM1042 329.5q0 -63.5 42 -106.5t104.5 -43t104.5 43t42 106.5t-42 105.5t-104.5 42t-104.5 -42t-42 -105.5 z" />
<glyph unicode="&#x26;" horiz-adv-x="1413" d="M43 365q0 244 283 362q-66 76 -95.5 138.5t-29.5 142.5q0 162 115.5 251t304.5 89q174 0 290.5 -81t116.5 -239q0 -125 -74.5 -208t-210.5 -144l218 -223q71 109 98 211l254 -58q-53 -190 -174 -332l270 -274h-397l-88 90q-176 -115 -387 -115t-352.5 103.5t-141.5 286.5 zM340 401q0 -80 63.5 -132t167.5 -52q98 0 185 53l-289 303q-127 -68 -127 -172zM477 1016q0 -27 8.5 -50.5t25.5 -48t35.5 -44t47.5 -48.5q180 82 180 191q0 37 -18.5 65.5t-51 44t-75.5 15.5t-77 -13.5t-54.5 -42t-20.5 -69.5z" />
<glyph unicode="'" horiz-adv-x="462" d="M68 1229v94h329v-94l-88 -475h-153z" />
<glyph unicode="(" horiz-adv-x="614" d="M57.5 602q-0.5 447 348.5 848l178 -115q-152 -195 -212.5 -369.5t-60.5 -363t60.5 -363.5t212.5 -370l-178 -115q-348 401 -348.5 848z" />
<glyph unicode=")" horiz-adv-x="614" d="M33 -131q150 195 210 370t60 363.5t-60 363t-210 369.5l178 115q348 -403 348 -848q0 -446 -348 -848z" />
<glyph unicode="*" horiz-adv-x="983" d="M76 868q78 47 143.5 68.5t194.5 44.5q-125 23 -191.5 45.5t-146.5 67.5l108 194q82 -47 133.5 -93t135.5 -144q-43 119 -57.5 187.5t-14.5 162.5h221q0 -96 -14.5 -166t-55.5 -184q80 96 133.5 143t133.5 94l110 -194q-82 -45 -147.5 -67.5t-190.5 -45.5 q127 -23 192.5 -44.5t145.5 -68.5l-110 -190q-80 45 -132.5 91t-134.5 142q41 -115 55.5 -183.5t14.5 -164.5h-221q0 49 3 87t12.5 79t21.5 82t35 100q-86 -98 -137.5 -144t-131.5 -89z" />
<glyph unicode="+" d="M80 477v252h389v389h252v-389h389v-252h-389v-387h-252v387h-389z" />
<glyph unicode="," horiz-adv-x="557" d="M111 -231q68 41 108.5 99t40.5 116v16h-145v322h327v-238q0 -139 -54 -241.5t-179 -194.5z" />
<glyph unicode="-" horiz-adv-x="817" d="M100 424v270h617v-270h-617z" />
<glyph unicode="." horiz-adv-x="557" d="M115 0v322h327v-322h-327z" />
<glyph unicode="/" horiz-adv-x="806" d="M61 -215l437 1634h254l-439 -1634h-252z" />
<glyph unicode="0" d="M72 664q0 109 15 204t53 185t95.5 154.5t148.5 103.5t208 39t209 -39t150.5 -103.5t97 -154.5t54 -185t15.5 -204t-15.5 -205.5t-54 -186.5t-97 -154.5t-150.5 -103.5t-209 -39q-96 0 -176 27t-136.5 76t-97.5 112.5t-64.5 142.5t-34.5 159.5t-11 171.5zM387 664 q0 -94 8 -166t29.5 -135.5t63.5 -97.5t104 -34q61 0 103 34t63.5 97.5t31 135.5t9.5 166t-9.5 166.5t-31 135t-63.5 95.5t-103 33q-41 0 -74 -15.5t-55.5 -45t-37.5 -66.5t-23.5 -88.5t-11.5 -102.5t-3 -112z" />
<glyph unicode="1" d="M203 1157q299 49 426 166h233v-1323h-311v989q-143 -51 -311 -69z" />
<glyph unicode="2" d="M59 1038q184 309 519 310q215 0 349 -116t134 -314q0 -158 -121 -313.5t-377 -321.5h545v-283h-1010v227q367 272 499 411.5t132 260.5q0 82 -50 128t-130 46q-76 0 -138.5 -44t-103.5 -128z" />
<glyph unicode="3" d="M39 315l260 119q39 -92 113.5 -142t179.5 -50q66 0 112 20.5t68.5 56t22.5 82.5q0 148 -217 148h-117v248h114q49 0 85 11t58.5 31.5t33 46t10.5 58.5q0 63 -47 99t-131 36q-59 0 -112.5 -19.5t-95.5 -58t-71 -94.5l-235 135q188 305 538 306q209 0 338 -101.5 t129 -263.5q0 -193 -184 -285q104 -37 164.5 -118.5t60.5 -188.5q0 -174 -142.5 -295t-383.5 -121q-393 0 -551 340z" />
<glyph unicode="4" d="M47 268v230q111 207 173.5 431t62.5 394h303q0 -170 -64.5 -379t-179.5 -418h326v512h303v-512h174v-258h-174v-268h-312v268h-612z" />
<glyph unicode="5" d="M61 260l252 137q80 -149 256 -149q94 0 156.5 54t62.5 144q0 59 -26.5 104.5t-77.5 70t-121 24.5q-147 0 -239 -113l-185 76l47 715h850v-285h-604l-24 -221q90 66 241 66q127 0 229.5 -50.5t165 -149.5t62.5 -232q0 -92 -33 -175t-95.5 -151t-165.5 -109t-232 -41 q-170 0 -301.5 70t-217.5 215z" />
<glyph unicode="6" d="M88 494q0 424 418 829h442q-330 -242 -446 -465q72 59 207 60q186 0 306 -122t120 -325q0 -221 -144.5 -358.5t-378.5 -137.5q-244 0 -384 134.5t-140 384.5zM410 464.5q0 -102.5 52 -163.5t150 -61q94 0 145.5 62.5t51.5 164.5t-51 161.5t-146 59.5q-98 0 -150 -60.5 t-52 -163z" />
<glyph unicode="7" d="M86 1038v285h1022v-219q-53 -74 -76.5 -107.5t-87 -128t-97.5 -157t-85 -164t-77 -182t-45 -179t-17 -186.5h-353q4 127 39 263t85 245.5t115.5 218.5t120 180.5t107.5 130.5h-651z" />
<glyph unicode="8" d="M66 379q0 76 26.5 140.5t75.5 110.5t117 72q-49 25 -86 62t-62.5 95.5t-25.5 127.5q0 86 38.5 155.5t105.5 113.5t154 68t185 24q207 0 346 -94.5t139 -266.5q0 -68 -24.5 -126t-62.5 -95t-89 -64q104 -39 162.5 -123.5t58.5 -199.5q0 -174 -140 -289t-390 -115 q-100 0 -186 20.5t-148.5 57.5t-106.5 87t-65.5 110.5t-21.5 128.5zM387 399q0 -88 57.5 -133t149.5 -45q94 0 150.5 45t56.5 135q0 86 -55.5 132.5t-149.5 46.5q-96 0 -152.5 -46.5t-56.5 -134.5zM430 956q0 -78 46 -112.5t118 -34.5t120 35t48 112q0 31 -9.5 56.5 t-24.5 42t-36.5 28t-46 16.5t-51.5 5q-72 0 -118 -36t-46 -112z" />
<glyph unicode="9" d="M55 852q0 221 144.5 358.5t380.5 137.5q244 0 384 -135.5t140 -383.5q0 -231 -110.5 -432.5t-309.5 -396.5h-442q326 236 448 463q-76 -59 -209 -60q-186 0 -306 123t-120 326zM381 856q0 -102 51 -161.5t148 -59.5q66 0 111.5 28.5t67 78.5t21.5 116q0 102 -51 163.5 t-149 61.5q-96 0 -147.5 -62.5t-51.5 -164.5z" />
<glyph unicode=":" horiz-adv-x="604" d="M139 0v322h328v-322h-328zM139 739v322h328v-322h-328z" />
<glyph unicode=";" horiz-adv-x="604" d="M135 -231q68 41 109 99t41 116v16h-146v322h328v-238q0 -139 -54.5 -241.5t-181.5 -194.5zM139 739v322h328v-322h-328z" />
<glyph unicode="&#x3c;" d="M178 606l608 606l177 -176l-428 -430l428 -430l-177 -176z" />
<glyph unicode="=" d="M80 266v252h1030v-252h-1030zM80 690v252h1030v-252h-1030z" />
<glyph unicode="&#x3e;" d="M229 176l430 430l-430 430l174 176l609 -606l-609 -606z" />
<glyph unicode="?" horiz-adv-x="1124" d="M57 1161q209 188 490 189q219 0 354 -113.5t135 -312.5q0 -172 -111.5 -283t-279.5 -154v-45h-305v301q47 -14 115 -14q117 0 186.5 46t69.5 138q0 80 -55.5 124t-143.5 44q-170 0 -285 -120zM332 0v293h332v-293h-332z" />
<glyph unicode="@" horiz-adv-x="1705" d="M82 598q0 158 55.5 296t155.5 238.5t248.5 159t326.5 58.5q229 0 406.5 -99.5t269.5 -268.5t92 -380q0 -186 -93 -302t-253 -116q-173 0 -241 129q-86 -131 -252 -131q-160 0 -255.5 116t-95.5 294q0 117 42 210t123 147.5t186 54.5q117 0 198 -99v82h234v-547 q0 -123 104 -123q76 0 118 79t42 202q0 279 -164 451t-455 172q-190 0 -334.5 -86t-217 -226.5t-72.5 -310.5q0 -266 169 -443.5t455 -177.5q193 0 322 93l59 -119q-170 -102 -389 -103q-354 0 -569 212t-215 538zM688 592q0 -92 40 -153.5t112 -61.5q76 0 115.5 60.5 t39.5 154.5t-41 155.5t-116 61.5q-72 0 -111 -62.5t-39 -154.5z" />
<glyph unicode="A" horiz-adv-x="1361" d="M2 0l492 1323h378l488 -1323h-352l-93 283h-477l-90 -283h-346zM510 537h332l-164 522z" />
<glyph unicode="B" horiz-adv-x="1343" d="M143 0v1323h627q217 0 336 -91t119 -251q0 -45 -11.5 -86t-33 -78t-54 -66.5t-73.5 -52.5q106 -41 162.5 -124t56.5 -189q0 -176 -123 -280.5t-338 -104.5h-668zM461 272h325q49 0 85 16.5t55.5 48.5t19.5 77q0 63 -42 103t-116 40h-327v-285zM461 807h291q72 0 112.5 33 t40.5 94q0 117 -157 117h-287v-244z" />
<glyph unicode="C" horiz-adv-x="1361" d="M68 664q0 305 184 494.5t479 189.5q389 0 582 -330l-250 -146q-115 201 -324 201q-158 0 -252 -114.5t-94 -292.5q0 -182 94.5 -299t251.5 -117q109 0 184.5 54t135.5 165l262 -137q-92 -170 -239.5 -263.5t-348.5 -93.5q-297 0 -481 190.5t-184 498.5z" />
<glyph unicode="D" horiz-adv-x="1439" d="M143 0v1323h549q162 0 291 -50t214 -139.5t129 -210t44 -261.5q0 -291 -179.5 -476.5t-498.5 -185.5h-549zM461 283h231q113 0 193 46t118.5 131t38.5 202q0 176 -90 276t-260 100h-231v-755z" />
<glyph unicode="E" horiz-adv-x="1253" d="M143 0v1323h1010v-285h-694v-223h604v-252h-604v-280h712v-283h-1028z" />
<glyph unicode="F" horiz-adv-x="1212" d="M143 0v1323h1020v-285h-704v-254h604v-252h-604v-532h-316z" />
<glyph unicode="G" horiz-adv-x="1439" d="M68 665.5q0 309.5 184 496t491 186.5q190 0 338 -85t236 -237l-260 -147q-101 194 -314 194h-2q-166 0 -256 -112.5t-90 -292.5q0 -133 42 -228.5t121 -144.5t187 -49q121 0 209 60.5t103 166.5h-307v252h626q10 -53 10 -119q0 -178 -71.5 -318.5t-221 -226.5t-352.5 -86 q-303 0 -488 190.5t-185 500z" />
<glyph unicode="H" horiz-adv-x="1464" d="M143 0v1323h318v-489h543v489h319v-1323h-319v553h-543v-553h-318z" />
<glyph unicode="I" horiz-adv-x="600" d="M143 0v1323h316v-1323h-316z" />
<glyph unicode="J" horiz-adv-x="1103" d="M16 260l260 141q66 -147 203 -147q86 0 131 51.5t45 147.5v585h-346v285h664v-862q0 -158 -60.5 -268.5t-169 -164t-254.5 -53.5q-344 0 -473 285z" />
<glyph unicode="K" horiz-adv-x="1380" d="M143 0v1323h316v-575l497 575h381l-465 -532l514 -791h-370l-363 561l-194 -225v-336h-316z" />
<glyph unicode="L" horiz-adv-x="1153" d="M143 0v1323h316v-1040h669v-283h-985z" />
<glyph unicode="M" horiz-adv-x="1796" d="M143 0v1323h457l301 -928l301 928h453v-1323h-309v989l-322 -989h-256l-317 981v-981h-308z" />
<glyph unicode="N" horiz-adv-x="1464" d="M143 0v1323h396l483 -887v887h301v-1323h-379l-498 905v-905h-303z" />
<glyph unicode="O" horiz-adv-x="1486" d="M68 662q0 193 78.5 347t234.5 246.5t361.5 92.5t362.5 -92.5t237.5 -246.5t80.5 -347t-80.5 -347.5t-237.5 -247t-362.5 -92.5t-361.5 92.5t-234.5 247t-78.5 347.5zM395 662q0 -172 92.5 -284t256 -112t257 112t93.5 284q0 170 -93.5 282.5t-257 112.5t-256 -111.5 t-92.5 -283.5z" />
<glyph unicode="P" horiz-adv-x="1296" d="M143 0v1323h615q231 0 367.5 -123t136.5 -330q0 -205 -136.5 -326.5t-367.5 -121.5h-297v-422h-318zM461 705h293q86 0 136 43t50 124q0 82 -50 124t-136 42h-293v-333z" />
<glyph unicode="Q" horiz-adv-x="1486" d="M68 662q0 193 78.5 347t234.5 246.5t361.5 92.5t362.5 -92.5t237.5 -246.5t80.5 -347q0 -287 -178 -480l152 -162l-226 -186l-153 193q-127 -51 -275 -52q-207 0 -362.5 92.5t-234 247t-78.5 347.5zM395 662q0 -172 92.5 -284t256 -112t257 112t93.5 284 q0 170 -93.5 282.5t-257 112.5t-256 -111.5t-92.5 -283.5z" />
<glyph unicode="R" horiz-adv-x="1347" d="M143 0v1323h621q240 0 369 -115.5t129 -306.5q0 -135 -72 -233.5t-174 -147.5l282 -520h-352l-239 459h-246v-459h-318zM461 711h299q51 0 92 19.5t64.5 57.5t23.5 89q0 31 -9 57.5t-25.5 44.5t-39 32.5t-50.5 20.5t-56 6h-299v-327z" />
<glyph unicode="S" horiz-adv-x="1263" d="M33 307l250 131q119 -205 379 -205q70 0 122 16.5t80.5 48.5t28.5 73q0 29 -9.5 49t-33 36.5t-41.5 26t-62.5 19.5t-64.5 14t-78 14q-90 16 -156.5 35t-134 50.5t-110.5 74.5t-71 106.5t-28 145.5q0 186 140.5 296t373.5 110q170 0 317.5 -64.5t242.5 -204.5l-236 -147 q-115 160 -330 160q-43 0 -77.5 -8.5t-60 -24t-39 -39t-13.5 -55.5q0 -23 8 -41.5t28.5 -31.5t39 -22.5t54.5 -18.5t58.5 -13t67.5 -13q8 -2 14 -2q92 -16 161 -35.5t138.5 -51t113.5 -73.5t71.5 -104.5t27.5 -142.5q0 -195 -148.5 -318t-408.5 -123q-215 0 -374.5 87.5 t-239.5 244.5z" />
<glyph unicode="T" horiz-adv-x="1249" d="M55 1038v285h1139v-285h-412v-1038h-317v1038h-410z" />
<glyph unicode="U" horiz-adv-x="1415" d="M129 512v811h317v-811q0 -121 67 -184.5t196 -63.5q127 0 194.5 64.5t67.5 183.5v811h317v-811q0 -170 -72.5 -292t-202.5 -183.5t-304 -61.5q-266 0 -423 141.5t-157 395.5z" />
<glyph unicode="V" horiz-adv-x="1327" d="M0 1323h346l318 -956l313 956h350l-489 -1323h-346z" />
<glyph unicode="W" horiz-adv-x="1918" d="M35 1323h344l196 -881l244 881h283l244 -883l196 883h348l-366 -1323h-344l-222 834l-225 -834h-346z" />
<glyph unicode="X" horiz-adv-x="1382" d="M-4 0l491 690l-448 633h381l274 -422l273 422h374l-446 -633l491 -690h-385l-311 465l-313 -465h-381z" />
<glyph unicode="Y" horiz-adv-x="1327" d="M-4 1323h369l301 -526l301 526h368l-512 -815v-508h-317v504z" />
<glyph unicode="Z" horiz-adv-x="1265" d="M74 0v244l657 794h-631v285h1071v-229l-665 -811h684v-283h-1116z" />
<glyph unicode="[" horiz-adv-x="647" d="M127 -215v1634h500v-192h-246v-1252h246v-190h-500z" />
<glyph unicode="\" horiz-adv-x="806" d="M57 1419h252l439 -1634h-252z" />
<glyph unicode="]" horiz-adv-x="647" d="M23 -25h243v1252h-243v192h497v-1634h-497v190z" />
<glyph unicode="^" d="M33 862l461 461h208l459 -461l-174 -176l-389 389l-389 -389z" />
<glyph unicode="_" horiz-adv-x="1153" d="M-16 -150h1185v-98h-1185v98z" />
<glyph unicode="`" horiz-adv-x="641" d="M98 1419l250 41q39 -100 164 -270l-113 -57q-88 45 -176 125.5t-125 160.5z" />
<glyph unicode="a" horiz-adv-x="1347" d="M66 530q0 242 132 398.5t351 156.5q197 0 323 -145v121h306v-799q0 -65 51 -65h2q37 0 55 14l31 -191q-56 -36 -157 -36h-5q-195 0 -258 147q-115 -156 -342 -156t-358 157t-131 398zM385 528q0 -127 62.5 -208.5t179.5 -81.5t181 82.5t64 207.5q0 127 -64.5 211 t-180.5 84q-117 0 -179.5 -84t-62.5 -211z" />
<glyph unicode="b" horiz-adv-x="1300" d="M125 0v1419h305v-479q129 145 326 145q219 0 350 -156.5t131 -398.5q0 -240 -131 -397.5t-350 -157.5q-197 0 -326 146v-121h-305zM430 528q0 -127 64.5 -208.5t183.5 -81.5q117 0 177 81.5t60 208.5q0 82 -24.5 146.5t-79.5 106.5t-133 42q-117 0 -182.5 -85t-65.5 -210 z" />
<glyph unicode="c" horiz-adv-x="1118" d="M61 528q0 242 149.5 399.5t395.5 157.5q317 0 473 -270l-235 -139q-76 151 -219 151h-2q-113 0 -177.5 -82.5t-64.5 -214.5q0 -133 66.5 -215t181.5 -82q78 0 131 38t98 108l221 -148q-156 -256 -469 -256q-250 0 -399.5 156t-149.5 397z" />
<glyph unicode="d" horiz-adv-x="1300" d="M63 530q0 242 132.5 398.5t351.5 156.5q197 0 323 -145v479h306v-1419h-306v121q-127 -145 -323 -146q-219 0 -351.5 158t-132.5 397zM383 528q0 -127 62.5 -208.5t179.5 -81.5t181 82.5t64 207.5q0 127 -64.5 211t-180.5 84q-117 0 -179.5 -84t-62.5 -211z" />
<glyph unicode="e" horiz-adv-x="1216" d="M63 524q0 246 149.5 403.5t408.5 157.5q250 0 394 -149t144 -393q0 -20 -6 -92h-764q8 -106 80 -162t188 -56q180 0 293 127l195 -184q-201 -201 -506 -201q-274 0 -425 153t-151 396zM391 657h467q-8 96 -71.5 148.5t-159.5 52.5q-100 0 -164 -54.5t-72 -146.5z" />
<glyph unicode="f" horiz-adv-x="765" d="M37 829v232h166v43q0 154 99 245t284 91q112 -1 188 -21l-31 -233q-63 22 -115 22h-5q-59 0 -88 -22.5t-29 -73.5v-51h221v-232h-221v-829h-303v829h-166z" />
<glyph unicode="g" horiz-adv-x="1304" d="M68 571q0 219 134 366.5t347 147.5q203 0 328 -145v121h305v-850q0 -137 -27 -233.5t-94 -172.5q-156 -170 -496 -170q-266 0 -463 115l113 236q143 -96 346 -97q143 0 229.5 58.5t86.5 187.5v74q-123 -143 -330 -143q-213 0 -346 145t-133 360zM389 575 q0 -115 62.5 -188.5t177.5 -73.5q78 0 135 36t86 94t29 132t-29 132.5t-85 92.5t-136 34q-115 0 -177.5 -72t-62.5 -187z" />
<glyph unicode="h" horiz-adv-x="1218" d="M125 0v1419h305v-479q129 145 318 145q172 0 264 -106.5t92 -276.5v-702h-303v633q0 182 -166 182q-88 0 -146.5 -56.5t-58.5 -154.5v-604h-305z" />
<glyph unicode="i" horiz-adv-x="552" d="M125 0v1061h305v-1061h-305zM125 1192v227h305v-227h-305z" />
<glyph unicode="j" horiz-adv-x="555" d="M-178 -305l82 221q53 -27 106 -27q115 0 115 136v1036h305v-1030q0 -195 -101.5 -294t-279.5 -99q-135 0 -227 57zM125 1192v227h305v-227h-305z" />
<glyph unicode="k" horiz-adv-x="1232" d="M125 0v1419h305v-801l399 443h359l-389 -416l434 -645h-361l-280 442l-162 -172v-270h-305z" />
<glyph unicode="l" horiz-adv-x="649" d="M127 315v1104h303v-1110q0 -51 21.5 -69.5t58.5 -18.5q55 0 94 21l49 -217q-82 -45 -211 -45q-186 0 -266 108q-18 29 -29.5 61.5t-15.5 70.5t-4 95z" />
<glyph unicode="m" horiz-adv-x="1853" d="M125 0v1061h305v-119q127 143 307 143q219 0 293 -180q135 180 356 180q174 0 264.5 -105.5t90.5 -274.5v-705h-305v635q0 82 -34 131t-126 49q-86 0 -138.5 -55t-52.5 -154v-606h-305v635q0 82 -33.5 131t-125.5 49q-86 0 -138.5 -55t-52.5 -154v-606h-305z" />
<glyph unicode="n" horiz-adv-x="1218" d="M125 0v1061h305v-121q129 145 318 145q172 0 264 -106.5t92 -276.5v-702h-303v633q0 182 -166 182q-88 0 -146.5 -56.5t-58.5 -154.5v-604h-305z" />
<glyph unicode="o" horiz-adv-x="1253" d="M63 528q0 250 153 403.5t410 153.5t410.5 -153.5t153.5 -403.5q0 -248 -153.5 -400.5t-410.5 -152.5t-410 153t-153 400zM385 530.5q0 -65.5 16.5 -121t46 -95.5t75.5 -61.5t104 -21.5q115 0 177 82t62 217.5t-62.5 217t-176.5 81.5q-57 0 -103.5 -21.5t-76 -61t-46 -95 t-16.5 -121z" />
<glyph unicode="p" horiz-adv-x="1300" d="M125 -346v1407h305v-121q129 145 326 145q217 0 349 -157.5t132 -397.5q0 -242 -131 -398.5t-350 -156.5q-195 0 -326 144v-465h-305zM430 530q0 -125 64.5 -208.5t183.5 -83.5q78 0 133 40.5t79.5 105.5t24.5 146q0 49 -9 92.5t-27.5 80t-46 63.5t-67.5 42t-87 15 q-119 0 -183.5 -83t-64.5 -210z" />
<glyph unicode="q" horiz-adv-x="1300" d="M63 530q0 240 132.5 397.5t351.5 157.5q197 0 323 -145v121h306v-1407h-306v465q-129 -143 -323 -144q-219 0 -351.5 157t-132.5 398zM383 532q0 -82 25.5 -146t81 -106t135.5 -42q117 0 181 83.5t64 210.5q0 82 -26.5 146.5t-84 104.5t-134.5 40q-117 0 -179.5 -82 t-62.5 -209z" />
<glyph unicode="r" horiz-adv-x="849" d="M125 0v1061h305v-160q49 84 124 132t157 48h5q81 0 132 -32l-80 -306q-55 31 -119 31q-96 0 -157.5 -72.5t-61.5 -189.5v-512h-305z" />
<glyph unicode="s" horiz-adv-x="1120" d="M33 233l207 138q57 -80 151 -120t197 -40q82 0 127 23.5t45 64.5q0 18 -7.5 31.5t-24.5 25t-32.5 18.5t-47.5 13t-53.5 9t-62.5 10q-102 14 -174.5 35.5t-135 59.5t-94.5 99.5t-32 144.5q0 164 126 252t321 88q113 0 215 -30.5t169.5 -73.5t119.5 -96l-181 -162 q-125 129 -323 129q-66 0 -111 -21.5t-45 -58.5q0 -41 45 -57.5t150 -32.5q8 -2 13 -2t12 -2t16 -2q100 -16 173.5 -40t135 -61.5t93.5 -97t32 -139.5q0 -166 -131 -264.5t-357 -98.5q-178 0 -317 64.5t-219 193.5z" />
<glyph unicode="t" horiz-adv-x="874" d="M33 829v232h166v262h305v-262h303v-232h-303v-477q0 -112 108 -112h2q70 0 129 49l113 -219q-123 -94 -293 -95q-213 0 -303 134q-61 90 -61 245v475h-166z" />
<glyph unicode="u" horiz-adv-x="1218" d="M115 358v703h305v-633q0 -182 164 -182q90 0 148.5 56t58.5 155v604h303v-1061h-303v119q-133 -143 -318 -144q-174 0 -266 106.5t-92 276.5z" />
<glyph unicode="v" horiz-adv-x="1136" d="M2 1061h340l229 -707l230 707h336l-412 -1061h-311z" />
<glyph unicode="w" horiz-adv-x="1646" d="M33 1061h332l143 -668l192 668h252l191 -668l143 668h330l-297 -1061h-307l-187 666l-192 -666h-307z" />
<glyph unicode="x" horiz-adv-x="1177" d="M8 0l375 553l-340 508h358l191 -322l186 322h359l-344 -510l374 -551h-368l-211 360l-213 -360h-367z" />
<glyph unicode="y" horiz-adv-x="1220" d="M100 -252l113 223q131 -82 307 -82q129 0 201 53.5t72 155.5v111q-131 -143 -318 -143q-174 0 -266 106.5t-92 273.5v615h305v-545q0 -180 164 -180q88 0 147.5 55t59.5 154v516h303v-889q0 -262 -131 -391q-150 -145 -439 -146q-250 0 -426 113z" />
<glyph unicode="z" horiz-adv-x="1077" d="M72 0v219l485 580h-461v262h891v-207l-493 -592h510v-262h-932z" />
<glyph unicode="{" horiz-adv-x="776" d="M29 506v190h94q76 0 106.5 40t30.5 112v246q0 156 90 242.5t242 86.5h168v-192h-92q-154 0 -154 -172v-164q0 -227 -188 -293q188 -63 188 -293v-164q0 -174 154 -174h92v-190h-168q-152 0 -242 87t-90 243v245q0 70 -30.5 110t-106.5 40h-94z" />
<glyph unicode="|" horiz-adv-x="487" d="M127 -215v1634h235v-1634h-235z" />
<glyph unicode="}" horiz-adv-x="776" d="M18 -29h91q84 0 118.5 45t34.5 129v162q0 227 189 295q-188 63 -189 291v166q0 55 -13 92t-48 58.5t-92 21.5h-91v192h168q152 0 241 -87t89 -242v-246q0 -72 32 -112t107 -40h95v-190h-95q-139 0 -139 -150v-245q0 -156 -89 -243t-241 -87h-168v190z" />
<glyph unicode="~" horiz-adv-x="1208" d="M61 502q86 152 175.5 227.5t199.5 75.5q86 0 164 -49q12 -8 34.5 -22.5t31 -19.5t25 -15.5t22.5 -13.5l18 -9t18.5 -7t16.5 -3t18.5 -3t18.5 -1q94 0 196 141l152 -90q-57 -100 -112.5 -165t-122 -100.5t-142.5 -35.5q-84 0 -162 49q-14 8 -37 22q-72 45 -99 58.5 t-66 13.5q-97 0 -197 -141z" />
<glyph unicode="&#xa1;" horiz-adv-x="610" d="M143 57l84 559h158l84 -559v-321h-326v321zM143 762v299h326v-299h-326z" />
<glyph unicode="&#xa2;" d="M86 528q0 227 134 382t358 173v162h118v-164q266 -29 406 -266l-234 -139q-61 121 -172 145v-583q109 18 187 141l219 -148q-137 -227 -406 -251v-166h-118v163q-225 18 -358.5 171t-133.5 380zM395 530q0 -74 20.5 -132t62.5 -98t100 -56v575q-88 -23 -135.5 -100.5 t-47.5 -188.5z" />
<glyph unicode="&#xa3;" d="M25 539v186h139q-45 115 -45 203q0 98 39 178t106.5 132t157.5 81t196 29q352 0 525 -314l-262 -127q-39 74 -93.5 115t-142.5 41q-39 0 -73.5 -11.5t-61.5 -33t-41 -53t-14 -72.5q0 -68 41 -168h333v-186h-288q2 -6 2 -21q0 -39 -3 -64.5t-22.5 -68.5t-58.5 -88 q63 23 125 22q53 0 136 -21.5t109 -21.5q86 0 125 101l240 -141q-115 -260 -336 -261q-66 0 -196 47.5t-201 47.5q-68 0 -154 -25t-157 -70l-109 242q203 88 203 227q0 47 -13 95h-206z" />
<glyph unicode="&#xa4;" d="M76 262l155 156q-45 84 -45 184t45 186l-155 158l176 178l160 -159q84 45 182 45q100 0 182 -47l162 161l176 -178l-158 -162q45 -88 45 -182q0 -90 -43 -180l156 -160l-176 -178l-160 156q-88 -45 -184 -45q-94 0 -184 45l-158 -156zM393 602q0 -84 58.5 -142.5 t142.5 -58.5t142.5 58.5t58.5 142.5t-58.5 142.5t-142.5 58.5t-142.5 -58.5t-58.5 -142.5z" />
<glyph unicode="&#xa5;" d="M14 1323h361l225 -500l221 500h357l-328 -616h240v-132h-310l-26 -49v-90h336v-131h-336v-305h-316v305h-340v131h340v86l-28 53h-312v132h244z" />
<glyph unicode="&#xa6;" horiz-adv-x="462" d="M137 -215v637h189v-637h-189zM137 782v637h189v-637h-189z" />
<glyph unicode="&#xa7;" horiz-adv-x="1185" d="M76 -78l162 205q131 -131 301 -131q121 0 192 72l-203 122q-72 45 -126 83t-118.5 97.5t-105.5 119t-68.5 141.5t-27.5 170q0 238 154.5 392.5t410.5 154.5q272 0 463 -181l-162 -204q-131 131 -301 131q-119 0 -194 -70l209 -127q92 -55 159.5 -107.5t137 -127 t106.5 -170t37 -201.5q0 -238 -153.5 -392.5t-409.5 -154.5q-270 0 -463 178zM344 801q0 -51 9 -96.5t32 -85t47.5 -71.5t68.5 -70t83 -66.5t100 -71.5l152 -109q6 39 6 70q0 72 -21.5 131.5t-72 114.5t-102.5 98t-144 107l-152 106q-6 -31 -6 -57z" />
<glyph unicode="&#xa8;" horiz-adv-x="641" d="M-16 1167v228h223v-228h-223zM434 1167v228h221v-228h-221z" />
<glyph unicode="&#xa9;" horiz-adv-x="1540" d="M74 662q0 188 93 348.5t254 254t349 93.5t349 -93.5t255 -254t94 -348.5t-94 -349t-255 -254.5t-349 -93.5t-349 93.5t-254 254t-93 349.5zM217 662q0 -229 162 -392.5t391 -163.5t392 163.5t163 392.5q0 231 -162 393t-393 162q-227 0 -390 -163t-163 -392zM354 662 q0 176 123 298.5t295 122.5q236 0 377 -229l-184 -119q-70 121 -189 121q-51 0 -96 -25.5t-70.5 -70.5t-25.5 -98q0 -51 25.5 -97.5t70.5 -73t96 -26.5q117 0 189 127l188 -121q-68 -113 -167 -171t-214 -58q-172 0 -295 122.5t-123 297.5z" />
<glyph unicode="&#xaa;" horiz-adv-x="882" d="M70 838q0 82 44 130t105.5 62t124 20.5t106.5 16.5t44 37q0 55 -109 55q-117 0 -223 -65l-70 163q129 80 322 80q307 0 307 -256v-264q0 -12 3 -19t9 -11.5t19 -4.5q20 1 36 11l29 -146q-43 -23 -123 -22q-117 0 -151 73q-76 -80 -224 -80q-111 0 -180 57.5t-69 162.5z M287 846q0 -66 80 -66q59 0 94 29t35 84v55q-35 -20 -111 -30q-33 -4 -51.5 -9.5t-32.5 -21t-14 -41.5z" />
<glyph unicode="&#xab;" horiz-adv-x="1013" d="M37 473v111l323 405l146 -108l-221 -353l221 -352l-146 -108zM475 473v111l322 405l147 -108l-223 -353l223 -352l-147 -108z" />
<glyph unicode="&#xac;" horiz-adv-x="1241" d="M96 477v252h1028v-639h-250v387h-778z" />
<glyph unicode="&#xad;" horiz-adv-x="817" d="M100 424v270h617v-270h-617z" />
<glyph unicode="&#xae;" horiz-adv-x="931" d="M76 955.5q0 162.5 114.5 277.5t276.5 115t276.5 -115t114.5 -276.5t-114.5 -276.5t-276.5 -115t-276.5 114t-114.5 276.5zM133 955.5q0 -138.5 97.5 -235.5t236.5 -97q90 0 167 44t122 120.5t45 168.5q0 137 -98.5 235.5t-235.5 98.5q-139 0 -236.5 -98t-97.5 -236.5z M299 758v401h197q72 0 111.5 -36t39.5 -97q0 -96 -72 -121l80 -147h-118l-64 133h-61v-133h-113zM412 971h75q20 0 35 14t15 39q0 23 -14.5 36t-35.5 13h-75v-102z" />
<glyph unicode="&#xaf;" horiz-adv-x="704" d="M8 1178v165h660v-165h-660z" />
<glyph unicode="&#xb0;" horiz-adv-x="751" d="M57 1026q0 131 94.5 226.5t225.5 95.5q86 0 159.5 -44t116.5 -118t43 -160q0 -133 -94 -227t-225 -94t-225.5 94t-94.5 227zM236 1026q0 -57 41.5 -98t100 -41t98.5 41t40 98t-40 98t-98.5 41t-100 -41t-41.5 -98z" />
<glyph unicode="&#xb1;" d="M80 0v252h1030v-252h-1030zM80 686v252h389v338h252v-338h389v-252h-389v-336h-252v336h-389z" />
<glyph unicode="&#xb2;" horiz-adv-x="808" d="M35 1311q133 213 356 213q150 0 242 -76t92 -207q0 -96 -66.5 -185t-222.5 -198h320v-205h-688v166q164 115 249.5 185.5t124.5 123t39 101.5q0 43 -31.5 68.5t-78.5 25.5q-96 0 -150 -109z" />
<glyph unicode="&#xb3;" horiz-adv-x="813" d="M33 877l194 59q47 -100 185 -100q51 0 81.5 22.5t30.5 59.5q0 35 -29.5 53t-78.5 18h-113v189h109q35 0 63.5 18t28.5 53q0 39 -30 57.5t-75 18.5q-121 0 -174 -94l-178 80q125 213 365 213q135 0 228 -65.5t93 -186.5q0 -115 -92 -172q61 -25 91 -77.5t30 -113.5 q0 -117 -96.5 -194.5t-255.5 -77.5q-279 0 -377 240z" />
<glyph unicode="&#xb4;" horiz-adv-x="641" d="M156 1190q119 156 166 270l245 -41q-33 -80 -121 -160.5t-178 -125.5z" />
<glyph unicode="&#xb5;" d="M98 -346v1407h301v-643q0 -186 158 -187q80 0 134 54.5t54 156.5v619h302v-799q0 -66 49 -65q29 0 47 12l20 -197q-55 -29 -145 -28q-80 0 -139.5 34.5t-81.5 102.5q-43 -70 -115 -108t-143 -38q-86 0 -140 56v-377h-301z" />
<glyph unicode="&#xb6;" horiz-adv-x="1142" d="M68 889q0 195 125.5 314.5t310.5 119.5h497v-1503h-108v1319h-115v-1319h-198v631h-76q-188 0 -312 120.5t-124 317.5z" />
<glyph unicode="&#xb7;" horiz-adv-x="550" d="M88 604q0 78 55.5 133.5t132.5 55.5q51 0 94.5 -26t68 -69t24.5 -94q0 -76 -55.5 -132t-131.5 -56q-39 0 -73.5 15t-60 41t-40 60.5t-14.5 71.5z" />
<glyph unicode="&#xb8;" horiz-adv-x="641" d="M61 -117q72 -68 160 -67q31 0 54.5 8t37 26.5t13.5 45.5q0 68 -93 120l76 41q90 -31 143.5 -92t53.5 -131q0 -82 -73 -136t-185 -54q-126 0 -187 55v184z" />
<glyph unicode="&#xb9;" horiz-adv-x="585" d="M8 1403q201 31 289 104h170v-854h-231v613q-96 -27 -201 -39z" />
<glyph unicode="&#xba;" horiz-adv-x="878" d="M57 977q0 162 104.5 261t276.5 99q117 0 204 -45t134 -127t47 -188q0 -80 -27.5 -146.5t-76.5 -113.5t-121 -73t-160 -26q-172 0 -276.5 98.5t-104.5 260.5zM295 977q0 -76 38 -123t105 -47q72 0 110 47t38 123q0 80 -38 127t-110 47q-68 0 -105.5 -48t-37.5 -126z" />
<glyph unicode="&#xbb;" horiz-adv-x="1013" d="M72 176l223 352l-223 353l147 108l322 -405v-111l-322 -405zM508 176l223 352l-223 353l147 108l322 -405v-111l-322 -405z" />
<glyph unicode="&#xbc;" horiz-adv-x="2048" d="M96 1219q199 31 287 104h172v-854h-231v612q-98 -27 -201 -39zM430 0l891 1323h225l-893 -1323h-223zM1192 166v164q68 123 109.5 267t44.5 257h223q-2 -227 -146 -498h185v293h215v-293h114v-190h-114v-166h-219v166h-412z" />
<glyph unicode="&#xbd;" horiz-adv-x="2048" d="M90 1219q199 31 287 104h172v-854h-232v612q-98 -27 -200 -39zM424 0l891 1323h225l-893 -1323h-223zM1214 657q133 213 355 213q150 0 241 -75.5t91 -208.5q0 -63 -29 -124t-91.5 -124.5t-166.5 -134.5h319v-203h-688v166q242 170 328 254t86 153q0 45 -31 71t-78 26 q-98 0 -153 -109z" />
<glyph unicode="&#xbe;" horiz-adv-x="2048" d="M63 692l193 60q49 -100 184 -101q53 0 84 22.5t31 59.5q0 33 -30.5 52.5t-80.5 19.5h-112v188h108q35 0 65 18.5t30 53.5q0 37 -31 56.5t-74 19.5q-123 0 -176 -94l-176 79q123 213 360 213q137 0 230.5 -65.5t93.5 -186.5q0 -115 -90 -172q59 -25 87.5 -77t28.5 -113 q0 -76 -41.5 -137.5t-121.5 -98t-187 -36.5q-279 0 -375 239zM485 0l891 1323h226l-893 -1323h-224zM1247 166v164q45 80 79 173t53.5 185t21.5 166h223q-2 -227 -145 -498h184v293h217v-293h113v-190h-113v-166h-221v166h-412z" />
<glyph unicode="&#xbf;" horiz-adv-x="1124" d="M102 137q0 172 113 282.5t281 153.5v45h305v-301q-47 14 -115 15q-117 0 -186.5 -46t-69.5 -139q0 -80 55.5 -123.5t143.5 -43.5q168 0 284 118l170 -198q-209 -188 -489 -189q-219 0 -355.5 113.5t-136.5 312.5zM477 768v293h332v-293h-332z" />
<glyph unicode="&#xc0;" horiz-adv-x="1361" d="M2 0l492 1323h378l488 -1323h-352l-93 283h-477l-90 -283h-346zM397 1669l248 41q41 -100 166 -270l-115 -58q-33 16 -67.5 40t-69.5 52.5t-65.5 60.5t-56 66.5t-40.5 67.5zM510 537h332l-164 522z" />
<glyph unicode="&#xc1;" horiz-adv-x="1361" d="M2 0l492 1323h378l488 -1323h-352l-93 283h-477l-90 -283h-346zM510 537h332l-164 522zM551 1440q119 156 166 270l246 -41q-33 -80 -121 -160t-178 -127z" />
<glyph unicode="&#xc2;" horiz-adv-x="1361" d="M2 0l492 1323h378l488 -1323h-352l-93 283h-477l-90 -283h-346zM315 1497q162 107 258 193h215q96 -86 259 -193l-70 -111q-164 33 -295 134q-133 -100 -297 -134zM510 537h332l-164 522z" />
<glyph unicode="&#xc3;" horiz-adv-x="1361" d="M2 0l492 1323h378l488 -1323h-352l-93 283h-477l-90 -283h-346zM299 1481q37 86 102.5 141t149.5 55q55 0 140 -39t124 -39q83 0 146 84l108 -73q-37 -86 -102.5 -141.5t-147.5 -55.5q-59 0 -144 39t-120 39q-86 0 -147 -84zM510 537h332l-164 522z" />
<glyph unicode="&#xc4;" horiz-adv-x="1361" d="M2 0l492 1323h378l488 -1323h-352l-93 283h-477l-90 -283h-346zM340 1419v226h223v-226h-223zM510 537h332l-164 522zM791 1419v226h221v-226h-221z" />
<glyph unicode="&#xc5;" horiz-adv-x="1349" d="M-4 0l459 1233q-70 68 -70 156q0 68 39 125t106.5 90.5t145.5 33.5q121 0 205 -73.5t84 -175.5q0 -90 -68 -156l459 -1233h-355l-92 283h-477l-90 -283h-346zM504 537h332l-164 522zM567 1386q0 -45 32 -74.5t79 -29.5q45 0 74.5 29.5t29.5 74.5q0 31 -13 55.5t-37.5 39 t-53.5 14.5q-47 0 -79 -30.5t-32 -78.5z" />
<glyph unicode="&#xc6;" horiz-adv-x="1955" d="M-14 0l669 1323h1200v-285h-614v-223h524v-252h-524v-280h635v-283h-950v551q-102 -18 -193.5 -59t-182.5 -130.5t-149 -214.5l-69 -147h-346zM659 709q119 66 267 94v293h-82z" />
<glyph unicode="&#xc7;" horiz-adv-x="1368" d="M70 664q0 305 184 494.5t479 189.5q389 0 582 -330l-250 -146q-115 201 -324 201q-158 0 -252 -114.5t-94 -292.5q0 -182 94.5 -299t251.5 -117q109 0 184.5 54t135.5 165l262 -137q-166 -309 -494 -350q70 -66 70 -148t-72.5 -136t-185.5 -54q-125 0 -186 55v184 q72 -68 159 -67q47 0 76 20.5t29 59.5q0 41 -41 81q-272 20 -440 207t-168 480z" />
<glyph unicode="&#xc8;" horiz-adv-x="1253" d="M143 0v1323h1010v-285h-694v-223h604v-252h-604v-280h712v-283h-1028zM379 1673l250 41q39 -100 164 -270l-113 -58q-57 29 -114.5 73t-110 101.5t-76.5 112.5z" />
<glyph unicode="&#xc9;" horiz-adv-x="1253" d="M143 0v1323h1010v-285h-694v-223h604v-252h-604v-280h712v-283h-1028zM547 1444q119 156 166 270l248 -41q-35 -80 -123.5 -161t-178.5 -126z" />
<glyph unicode="&#xca;" horiz-adv-x="1253" d="M143 0v1323h1010v-285h-694v-223h604v-252h-604v-280h712v-283h-1028zM293 1501q162 107 258 193h213q96 -86 260 -193l-70 -110q-166 33 -297 133q-131 -100 -295 -133z" />
<glyph unicode="&#xcb;" horiz-adv-x="1253" d="M143 0v1323h1010v-285h-694v-223h604v-252h-604v-280h712v-283h-1028zM326 1423v226h223v-226h-223zM776 1423v226h221v-226h-221z" />
<glyph unicode="&#xcc;" horiz-adv-x="600" d="M43 1669l250 41q39 -100 164 -270l-113 -58q-57 29 -114.5 73t-109.5 102.5t-77 111.5zM143 0v1323h316v-1323h-316z" />
<glyph unicode="&#xcd;" horiz-adv-x="600" d="M143 0v1323h316v-1323h-316zM162 1440q119 156 166 270l245 -41q-33 -80 -121 -160t-178 -127z" />
<glyph unicode="&#xce;" horiz-adv-x="600" d="M-66 1497q163 107 259 193h215q96 -86 258 -193l-70 -111q-164 33 -297 134q-131 -100 -295 -134zM143 0v1323h316v-1323h-316z" />
<glyph unicode="&#xcf;" horiz-adv-x="600" d="M-35 1419v226h221v-226h-221zM143 0v1323h316v-1323h-316zM416 1419v226h219v-226h-219z" />
<glyph unicode="&#xd0;" horiz-adv-x="1495" d="M4 543v250h195v530h553q319 0 496 -184.5t177 -477t-177 -477t-496 -184.5h-553v543h-195zM516 283h236q166 0 256 99.5t90 279.5q0 178 -90 277t-256 99h-236v-245h301v-250h-301v-260z" />
<glyph unicode="&#xd1;" horiz-adv-x="1464" d="M143 0v1323h396l483 -887v887h301v-1323h-379l-498 905v-905h-303zM369 1481q35 86 101.5 141t150.5 55q55 0 140 -39t124 -39q82 0 145 84l109 -73q-37 -86 -102.5 -141.5t-147.5 -55.5q-59 0 -144.5 39t-119.5 39q-86 0 -148 -84z" />
<glyph unicode="&#xd2;" horiz-adv-x="1486" d="M68 662q0 193 78.5 347t234.5 246.5t361.5 92.5t362.5 -92.5t237.5 -246.5t80.5 -347t-80.5 -347.5t-237.5 -247t-362.5 -92.5t-361.5 92.5t-234.5 247t-78.5 347.5zM395 662q0 -172 92.5 -284t256 -112t257 112t93.5 284q0 170 -93.5 282.5t-257 112.5t-256 -111.5 t-92.5 -283.5zM481 1669l248 41q39 -100 164 -270l-113 -58q-33 16 -67.5 40t-69.5 52.5t-65.5 60.5t-56 66.5t-40.5 67.5z" />
<glyph unicode="&#xd3;" horiz-adv-x="1486" d="M68 662q0 193 78.5 347t234.5 246.5t361.5 92.5t362.5 -92.5t237.5 -246.5t80.5 -347t-80.5 -347.5t-237.5 -247t-362.5 -92.5t-361.5 92.5t-234.5 247t-78.5 347.5zM395 662q0 -172 92.5 -284t256 -112t257 112t93.5 284q0 170 -93.5 282.5t-257 112.5t-256 -111.5 t-92.5 -283.5zM582 1440q119 156 168 270l245 -41q-33 -80 -122 -160t-177 -127z" />
<glyph unicode="&#xd4;" horiz-adv-x="1486" d="M68 662q0 193 78.5 347t234.5 246.5t361.5 92.5t362.5 -92.5t237.5 -246.5t80.5 -347t-80.5 -347.5t-237.5 -247t-362.5 -92.5t-361.5 92.5t-234.5 247t-78.5 347.5zM377 1497q164 107 258 193h215q96 -86 258 -193l-70 -111q-164 33 -295 134q-131 -100 -297 -134z M395 662q0 -172 92.5 -284t256 -112t257 112t93.5 284q0 170 -93.5 282.5t-257 112.5t-256 -111.5t-92.5 -283.5z" />
<glyph unicode="&#xd5;" horiz-adv-x="1486" d="M68 662q0 193 78.5 347t234.5 246.5t361.5 92.5t362.5 -92.5t237.5 -246.5t80.5 -347t-80.5 -347.5t-237.5 -247t-362.5 -92.5t-361.5 92.5t-234.5 247t-78.5 347.5zM365 1481q25 55 59.5 98t84.5 70.5t106.5 27.5t141.5 -39t124 -39q82 0 145 84l109 -73 q-37 -86 -102.5 -141.5t-147.5 -55.5q-47 0 -96.5 19.5t-93.5 39t-74 19.5q-86 0 -148 -84zM395 662q0 -172 92.5 -284t256 -112t257 112t93.5 284q0 170 -93.5 282.5t-257 112.5t-256 -111.5t-92.5 -283.5z" />
<glyph unicode="&#xd6;" horiz-adv-x="1486" d="M68 662q0 193 78.5 347t234.5 246.5t361.5 92.5t362.5 -92.5t237.5 -246.5t80.5 -347t-80.5 -347.5t-237.5 -247t-362.5 -92.5t-361.5 92.5t-234.5 247t-78.5 347.5zM395 662q0 -172 92.5 -284t256 -112t257 112t93.5 284q0 170 -93.5 282.5t-257 112.5t-256 -111.5 t-92.5 -283.5zM406 1419v226h223v-226h-223zM856 1419v226h221v-226h-221z" />
<glyph unicode="&#xd7;" d="M76 262l342 342l-342 342l176 178l344 -342l342 342l176 -178l-340 -342l340 -342l-176 -178l-342 342l-344 -342z" />
<glyph unicode="&#xd8;" horiz-adv-x="1486" d="M68 662q0 193 78.5 347t234.5 246.5t362 92.5q182 0 332 -78l62 88l127 -90l-60 -86q104 -94 161.5 -228.5t57.5 -291.5q0 -193 -80.5 -347.5t-237.5 -247t-362 -92.5q-186 0 -331 76l-60 -84l-127 88l58 82q-70 61 -118 143t-72.5 178.5t-24.5 203.5zM395 662 q0 -154 74 -259l430 619q-68 35 -156 35q-164 0 -256 -111.5t-92 -283.5zM586 299q61 -33 157 -33q164 0 257.5 112t93.5 284q0 150 -74 253z" />
<glyph unicode="&#xd9;" horiz-adv-x="1415" d="M129 512v811h317v-811q0 -121 67 -184.5t196 -63.5q127 0 194.5 64.5t67.5 183.5v811h317v-811q0 -170 -72.5 -292t-202.5 -183.5t-304 -61.5q-266 0 -423 141.5t-157 395.5zM438 1669l250 41q39 -100 164 -270l-113 -58q-33 16 -67.5 40t-70.5 52.5t-66.5 60.5t-56 66.5 t-40.5 67.5z" />
<glyph unicode="&#xda;" horiz-adv-x="1415" d="M129 512v811h317v-811q0 -121 67 -184.5t196 -63.5q127 0 194.5 64.5t67.5 183.5v811h317v-811q0 -170 -72.5 -292t-202.5 -183.5t-304 -61.5q-266 0 -423 141.5t-157 395.5zM594 1440q119 156 168 270l246 -41q-35 -80 -123 -160t-178 -127z" />
<glyph unicode="&#xdb;" horiz-adv-x="1415" d="M129 512v811h317v-811q0 -121 67 -184.5t196 -63.5q127 0 194.5 64.5t67.5 183.5v811h317v-811q0 -170 -72.5 -292t-202.5 -183.5t-304 -61.5q-266 0 -423 141.5t-157 395.5zM344 1497q162 107 258 193h215q96 -86 258 -193l-69 -111q-164 33 -297 134 q-131 -100 -295 -134z" />
<glyph unicode="&#xdc;" horiz-adv-x="1415" d="M129 512v811h317v-811q0 -121 67 -184.5t196 -63.5q127 0 194.5 64.5t67.5 183.5v811h317v-811q0 -170 -72.5 -292t-202.5 -183.5t-304 -61.5q-266 0 -423 141.5t-157 395.5zM377 1419v226h223v-226h-223zM827 1419v226h222v-226h-222z" />
<glyph unicode="&#xdd;" horiz-adv-x="1327" d="M-4 1323h369l301 -526l301 526h368l-512 -815v-508h-317v504zM543 1440q119 156 166 270l247 -41q-35 -80 -123 -160t-178 -127z" />
<glyph unicode="&#xde;" horiz-adv-x="1296" d="M143 0v1325h318v-164h297q231 0 367.5 -123t136.5 -329q0 -135 -59.5 -236.5t-174.5 -157t-270 -55.5h-297v-260h-318zM461 545h293q80 0 133 43t53 123q0 84 -50 127t-136 43h-293v-336z" />
<glyph unicode="&#xdf;" horiz-adv-x="1318" d="M125 0v1008q0 205 137 319.5t391 114.5q152 0 266.5 -43t181 -131t66.5 -211q0 -63 -20.5 -119.5t-61.5 -100.5t-98 -75q129 -35 199.5 -126t70.5 -230q0 -199 -134 -315t-349 -116q-156 0 -262 41l53 263q70 -37 158 -37q94 0 153.5 50t59.5 142q0 182 -242 182h-123 v250h95q88 0 141 40t53 120q0 55 -29.5 93t-75.5 54.5t-110 16.5q-68 0 -116 -21.5t-73.5 -63.5t-25.5 -101v-1004h-305z" />
<glyph unicode="&#xe0;" horiz-adv-x="1347" d="M66 530q0 242 132 398.5t351 156.5q197 0 323 -145v121h306v-799q0 -66 53 -65q37 0 55 14l31 -191q-57 -37 -162 -36q-195 0 -258 147q-115 -156 -342 -156t-358 157t-131 398zM352 1419l248 41q39 -100 164 -270l-113 -57q-88 45 -176 125.5t-123 160.5zM385 528 q0 -127 62.5 -208.5t179.5 -81.5t181 82.5t64 207.5q0 127 -64.5 211t-180.5 84q-117 0 -179.5 -84t-62.5 -211z" />
<glyph unicode="&#xe1;" horiz-adv-x="1347" d="M66 530q0 242 132 398.5t351 156.5q197 0 323 -145v121h306v-799q0 -66 53 -65q37 0 55 14l31 -191q-57 -37 -162 -36q-195 0 -258 147q-115 -156 -342 -156t-358 157t-131 398zM385 528q0 -127 62.5 -208.5t179.5 -81.5t181 82.5t64 207.5q0 127 -64.5 211t-180.5 84 q-117 0 -179.5 -84t-62.5 -211zM502 1190q121 156 168 270l245 -41q-33 -80 -121 -160.5t-178 -125.5z" />
<glyph unicode="&#xe2;" horiz-adv-x="1347" d="M66 530q0 242 132 398.5t351 156.5q197 0 323 -145v121h306v-799q0 -66 53 -65q37 0 55 14l31 -191q-57 -37 -162 -36q-195 0 -258 147q-115 -156 -342 -156t-358 157t-131 398zM260 1247q162 107 258 193h215q96 -86 258 -193l-69 -110q-164 33 -295 133 q-133 -100 -297 -133zM385 528q0 -127 62.5 -208.5t179.5 -81.5t181 82.5t64 207.5q0 127 -64.5 211t-180.5 84q-117 0 -179.5 -84t-62.5 -211z" />
<glyph unicode="&#xe3;" horiz-adv-x="1347" d="M66 530q0 242 132 398.5t351 156.5q197 0 323 -145v121h306v-799q0 -66 53 -65q37 0 55 14l31 -191q-57 -37 -162 -36q-195 0 -258 147q-115 -156 -342 -156t-358 157t-131 398zM244 1229q35 86 101.5 141t150.5 55q45 0 93 -18t92 -37.5t79 -19.5q82 0 145 82l109 -74 q-37 -84 -102.5 -140.5t-149.5 -56.5q-57 0 -142 39t-122 39q-84 0 -146 -82zM385 528q0 -127 62.5 -208.5t179.5 -81.5t181 82.5t64 207.5q0 127 -64.5 211t-180.5 84q-117 0 -179.5 -84t-62.5 -211z" />
<glyph unicode="&#xe4;" horiz-adv-x="1347" d="M66 530q0 242 132 398.5t351 156.5q197 0 323 -145v121h306v-799q0 -66 53 -65q37 0 55 14l31 -191q-57 -37 -162 -36q-195 0 -258 147q-115 -156 -342 -156t-358 157t-131 398zM291 1167v228h221v-228h-221zM385 528q0 -127 62.5 -208.5t179.5 -81.5t181 82.5t64 207.5 q0 127 -64.5 211t-180.5 84q-117 0 -179.5 -84t-62.5 -211zM741 1167v228h220v-228h-220z" />
<glyph unicode="&#xe5;" horiz-adv-x="1347" d="M66 530q0 242 132 398.5t351 156.5q197 0 323 -145v121h306v-799q0 -66 53 -65q37 0 55 14l31 -191q-57 -37 -162 -36q-195 0 -258 147q-115 -156 -342 -156t-358 157t-131 398zM379 1338q0 89 69.5 152.5t177 63.5t177 -63.5t69.5 -152.5t-69.5 -150.5t-177 -61.5 t-177 61.5t-69.5 150.5zM385 528q0 -127 62.5 -208.5t179.5 -81.5t181 82.5t64 207.5q0 127 -64.5 211t-180.5 84q-117 0 -179.5 -84t-62.5 -211zM526 1337q0 -41 30 -70.5t71 -29.5q27 0 50 14.5t36.5 36.5t13.5 49t-13.5 50.5t-37 37t-49.5 13.5q-41 0 -71 -30t-30 -71z " />
<glyph unicode="&#xe6;" horiz-adv-x="2002" d="M63 530q0 242 132.5 398.5t351.5 156.5q197 0 323 -145v121h306v-94q125 118 297 118q215 0 343 -151.5t128 -396.5q0 -35 -5 -82h-763q2 -43 16 -79t37.5 -62.5t55.5 -45t72 -28t85 -9.5q174 0 289 125l198 -180q-197 -201 -504 -201q-281 0 -424 177 q-145 -176 -399 -177q-166 0 -289 71t-186.5 196t-63.5 288zM383 528q0 -127 62.5 -208.5t179.5 -81.5t181 82.5t64 207.5q0 127 -64.5 211t-180.5 84q-117 0 -179.5 -84t-62.5 -211zM1176 647h466q-2 41 -15 76t-33.5 59.5t-49 42t-62.5 25.5t-71 8q-100 0 -162.5 -55.5 t-72.5 -155.5z" />
<glyph unicode="&#xe7;" horiz-adv-x="1120" d="M63 528q0 242 149.5 399.5t395.5 157.5q317 0 473 -270l-235 -139q-76 152 -221 151q-76 0 -130.5 -38.5t-83 -105.5t-28.5 -153q0 -133 66.5 -215t181.5 -82q78 0 131 38t98 108l221 -148q-135 -219 -385 -249q70 -66 70 -148q0 -39 -18.5 -74.5t-52 -60.5t-82 -40 t-105.5 -15q-125 0 -186 55v184q72 -68 159 -67q47 0 76 20.5t29 59.5q0 45 -43 84q-219 23 -349.5 174t-130.5 374z" />
<glyph unicode="&#xe8;" horiz-adv-x="1216" d="M63 524q0 246 149.5 403.5t408.5 157.5q250 0 394 -149t144 -393q0 -20 -6 -92h-764q8 -106 80 -162t188 -56q180 0 293 127l195 -184q-201 -201 -506 -201q-274 0 -425 153t-151 396zM344 1419l248 41q39 -100 166 -270l-115 -57q-41 20 -85 52t-86 68.5t-76 80.5 t-52 85zM391 657h467q-8 96 -71.5 148.5t-159.5 52.5q-100 0 -164 -54.5t-72 -146.5z" />
<glyph unicode="&#xe9;" horiz-adv-x="1216" d="M63 524q0 246 149.5 403.5t408.5 157.5q250 0 394 -149t144 -393q0 -20 -6 -92h-764q8 -106 80 -162t188 -56q180 0 293 127l195 -184q-201 -201 -506 -201q-274 0 -425 153t-151 396zM391 657h467q-8 96 -71.5 148.5t-159.5 52.5q-100 0 -164 -54.5t-72 -146.5z M485 1190q119 156 166 270l246 -41q-33 -80 -121 -160.5t-178 -125.5z" />
<glyph unicode="&#xea;" horiz-adv-x="1216" d="M63 524q0 246 149.5 403.5t408.5 157.5q250 0 394 -149t144 -393q0 -20 -6 -92h-764q8 -106 80 -162t188 -56q180 0 293 127l195 -184q-201 -201 -506 -201q-274 0 -425 153t-151 396zM252 1247q162 107 258 193h215q96 -86 258 -193l-70 -110q-164 33 -295 133 q-133 -100 -296 -133zM391 657h467q-8 96 -71.5 148.5t-159.5 52.5q-100 0 -164 -54.5t-72 -146.5z" />
<glyph unicode="&#xeb;" horiz-adv-x="1216" d="M63 524q0 246 149.5 403.5t408.5 157.5q250 0 394 -149t144 -393q0 -20 -6 -92h-764q8 -106 80 -162t188 -56q180 0 293 127l195 -184q-201 -201 -506 -201q-274 0 -425 153t-151 396zM285 1167v228h221v-228h-221zM391 657h467q-8 96 -71.5 148.5t-159.5 52.5 q-100 0 -164 -54.5t-72 -146.5zM735 1167v228h221v-228h-221z" />
<glyph unicode="&#xec;" horiz-adv-x="552" d="M18 1419l248 41q39 -100 164 -270l-113 -57q-88 45 -176 125.5t-123 160.5zM125 0v1061h305v-1061h-305z" />
<glyph unicode="&#xed;" horiz-adv-x="552" d="M125 0v1061h305v-1061h-305zM141 1190q119 156 166 270l248 -41q-35 -80 -123 -160.5t-178 -125.5z" />
<glyph unicode="&#xee;" horiz-adv-x="552" d="M-90 1247q164 107 258 193h215q96 -86 258 -193l-70 -110q-164 33 -295 133q-131 -100 -296 -133zM125 0v1061h305v-1061h-305z" />
<glyph unicode="&#xef;" horiz-adv-x="552" d="M-33 1167v228h221v-228h-221zM125 0v1061h305v-1061h-305zM365 1167v228h223v-228h-223z" />
<glyph unicode="&#xf0;" horiz-adv-x="1261" d="M66 487q0 217 133 363.5t346 146.5q147 0 252 -77q-66 111 -174 204l-240 -96l-45 115l158 65q-61 39 -152 82l254 152q100 -51 197 -123l243 98l47 -117l-184 -73q276 -279 277 -647q0 -301 -164 -461q-150 -143 -393 -144q-246 0 -400.5 140.5t-154.5 371.5zM387 485 q0 -115 62.5 -185.5t179.5 -70.5t182.5 71.5t65.5 184.5t-68 188t-182 75q-115 0 -177.5 -74t-62.5 -189z" />
<glyph unicode="&#xf1;" horiz-adv-x="1218" d="M125 0v1061h305v-121q129 145 318 145q172 0 264 -106.5t92 -276.5v-702h-303v633q0 182 -166 182q-88 0 -146.5 -56.5t-58.5 -154.5v-604h-305zM260 1229q35 86 100.5 141t149.5 55q57 0 142 -37.5t122 -37.5q82 0 148 82l106 -74q-35 -84 -101.5 -140.5t-148.5 -56.5 q-57 0 -142 39t-122 39q-84 0 -147 -82z" />
<glyph unicode="&#xf2;" horiz-adv-x="1253" d="M63 528q0 250 153 403.5t410 153.5t410.5 -153.5t153.5 -403.5q0 -248 -153.5 -400.5t-410.5 -152.5t-410 153t-153 400zM367 1419l249 41q39 -100 164 -270l-112 -57q-88 45 -177.5 125.5t-123.5 160.5zM385 530.5q0 -65.5 16.5 -121t46 -95.5t75.5 -61.5t104 -21.5 q115 0 177 82t62 217.5t-62.5 217t-176.5 81.5q-57 0 -103.5 -21.5t-76 -61t-46 -95t-16.5 -121z" />
<glyph unicode="&#xf3;" horiz-adv-x="1253" d="M63 528q0 250 153 403.5t410 153.5t410.5 -153.5t153.5 -403.5q0 -248 -153.5 -400.5t-410.5 -152.5t-410 153t-153 400zM385 530.5q0 -65.5 16.5 -121t46 -95.5t75.5 -61.5t104 -21.5q115 0 177 82t62 217.5t-62.5 217t-176.5 81.5q-57 0 -103.5 -21.5t-76 -61t-46 -95 t-16.5 -121zM449 1190q119 156 167 270l246 -41q-33 -80 -122 -160.5t-177 -125.5z" />
<glyph unicode="&#xf4;" horiz-adv-x="1253" d="M63 528q0 250 153 403.5t410 153.5t410.5 -153.5t153.5 -403.5q0 -248 -153.5 -400.5t-410.5 -152.5t-410 153t-153 400zM262 1247q162 107 258 193h215q96 -86 258 -193l-69 -110q-164 33 -295 133q-133 -100 -297 -133zM385 530.5q0 -65.5 16.5 -121t46 -95.5 t75.5 -61.5t104 -21.5q115 0 177 82t62 217.5t-62.5 217t-176.5 81.5q-57 0 -103.5 -21.5t-76 -61t-46 -95t-16.5 -121z" />
<glyph unicode="&#xf5;" horiz-adv-x="1253" d="M63 528q0 250 153 403.5t410 153.5t410.5 -153.5t153.5 -403.5q0 -248 -153.5 -400.5t-410.5 -152.5t-410 153t-153 400zM240 1229q35 86 101.5 141t150.5 55q55 0 140 -37.5t124 -37.5q82 0 145 82l109 -74q-37 -84 -102.5 -140.5t-147.5 -56.5q-59 0 -144.5 39 t-119.5 39q-86 0 -148 -82zM385 530.5q0 -65.5 16.5 -121t46 -95.5t75.5 -61.5t104 -21.5q115 0 177 82t62 217.5t-62.5 217t-176.5 81.5q-57 0 -103.5 -21.5t-76 -61t-46 -95t-16.5 -121z" />
<glyph unicode="&#xf6;" horiz-adv-x="1253" d="M63 528q0 250 153 403.5t410 153.5t410.5 -153.5t153.5 -403.5q0 -248 -153.5 -400.5t-410.5 -152.5t-410 153t-153 400zM291 1167v228h221v-228h-221zM385 530.5q0 -65.5 16.5 -121t46 -95.5t75.5 -61.5t104 -21.5q115 0 177 82t62 217.5t-62.5 217t-176.5 81.5 q-57 0 -103.5 -21.5t-76 -61t-46 -95t-16.5 -121zM741 1167v228h220v-228h-220z" />
<glyph unicode="&#xf7;" d="M80 477v252h1030v-252h-1030zM424 203q0 72 50 122t122 50q70 0 120 -50t50 -122q0 -70 -50 -120t-120 -50q-72 0 -122 50t-50 120zM424 1004q0 72 50 122t122 50q70 0 120 -50t50 -122q0 -70 -50 -121.5t-120 -51.5q-72 0 -122 51.5t-50 121.5z" />
<glyph unicode="&#xf8;" horiz-adv-x="1253" d="M63 528q0 250 153 403.5t411 153.5q137 0 266 -57l43 64l111 -78l-39 -58q182 -154 182 -428q0 -248 -153.5 -400.5t-409.5 -152.5q-147 0 -267 56l-43 -62l-112 78l37 53q-178 156 -179 428zM383 530q0 -102 37 -174l317 455q-47 27 -110 27q-117 0 -180.5 -85.5 t-63.5 -222.5zM512 250q47 -25 115 -25q115 0 179 83t64 222q0 102 -41 175z" />
<glyph unicode="&#xf9;" horiz-adv-x="1218" d="M115 358v703h305v-633q0 -182 164 -182q90 0 148.5 56t58.5 155v604h303v-1061h-303v119q-133 -143 -318 -144q-174 0 -266 106.5t-92 276.5zM319 1419l248 41q41 -100 166 -270l-112 -57q-90 45 -178.5 125.5t-123.5 160.5z" />
<glyph unicode="&#xfa;" horiz-adv-x="1218" d="M115 358v703h305v-633q0 -182 164 -182q90 0 148.5 56t58.5 155v604h303v-1061h-303v119q-133 -143 -318 -144q-174 0 -266 106.5t-92 276.5zM496 1190q121 156 168 270l245 -41q-33 -80 -121 -160.5t-178 -125.5z" />
<glyph unicode="&#xfb;" horiz-adv-x="1218" d="M115 358v703h305v-633q0 -182 164 -182q90 0 148.5 56t58.5 155v604h303v-1061h-303v119q-133 -143 -318 -144q-174 0 -266 106.5t-92 276.5zM244 1247q164 107 258 193h215q96 -86 258 -193l-70 -110q-164 33 -295 133q-131 -100 -297 -133z" />
<glyph unicode="&#xfc;" horiz-adv-x="1218" d="M115 358v703h305v-633q0 -182 164 -182q90 0 148.5 56t58.5 155v604h303v-1061h-303v119q-133 -143 -318 -144q-174 0 -266 106.5t-92 276.5zM268 1167v228h224v-228h-224zM719 1167v228h221v-228h-221z" />
<glyph unicode="&#xfd;" horiz-adv-x="1220" d="M100 -252l113 223q131 -82 307 -82q129 0 201 53.5t72 155.5v111q-131 -143 -318 -143q-174 0 -266 106.5t-92 273.5v615h305v-545q0 -180 164 -180q88 0 147.5 55t59.5 154v516h303v-889q0 -262 -131 -391q-150 -145 -439 -146q-250 0 -426 113zM496 1190 q121 156 168 270l245 -41q-33 -80 -121 -160.5t-178 -125.5z" />
<glyph unicode="&#xfe;" horiz-adv-x="1300" d="M125 -346v1765h305v-479q129 145 326 145q217 0 349 -157.5t132 -397.5q0 -242 -131 -398.5t-350 -156.5q-195 0 -326 144v-465h-305zM430 530q0 -125 64.5 -208.5t183.5 -83.5q78 0 133 40.5t79.5 105.5t24.5 146q0 49 -9 92.5t-27.5 80t-46 63.5t-67.5 42t-87 15 q-119 0 -183.5 -83t-64.5 -210z" />
<glyph unicode="&#xff;" horiz-adv-x="1220" d="M100 -252l113 223q131 -82 307 -82q129 0 201 53.5t72 155.5v111q-131 -143 -318 -143q-174 0 -266 106.5t-92 273.5v615h305v-545q0 -180 164 -180q88 0 147.5 55t59.5 154v516h303v-889q0 -262 -131 -391q-150 -145 -439 -146q-250 0 -426 113zM270 1167v228h224v-228 h-224zM721 1167v228h221v-228h-221z" />
<glyph unicode="&#x152;" horiz-adv-x="2074" d="M68 659q0 193 79.5 348.5t234.5 248t357 92.5q94 0 197 -25h1040v-285h-667q72 -96 94 -223h485v-252h-477q-16 -160 -102 -280h688v-283h-1059q-90 -25 -195 -25q-205 0 -360.5 92.5t-235 246t-79.5 345.5zM397 662q0 -172 91.5 -284t254.5 -112q164 0 257.5 111.5 t93.5 284t-93.5 284t-257.5 111.5q-109 0 -188.5 -53.5t-118.5 -142.5t-39 -199z" />
<glyph unicode="&#x153;" horiz-adv-x="1982" d="M61 528q0 244 147.5 400.5t393.5 156.5q250 0 395 -172q145 172 394 172q164 0 284.5 -69.5t183 -191t62.5 -281.5q0 -20 -6 -92h-762q6 -106 78 -162t190 -56q178 0 291 127l195 -184q-201 -201 -504 -201q-258 0 -404 172q-147 -172 -397 -172q-246 0 -393.5 156 t-147.5 397zM383 530q0 -135 60.5 -217t170 -82t170 82t60.5 217.5t-60.5 217t-169.5 81.5q-74 0 -126 -37.5t-78.5 -105.5t-26.5 -156zM1155 657h467q-10 96 -73.5 148.5t-159.5 52.5q-100 0 -164 -54.5t-70 -146.5z" />
<glyph unicode="&#x178;" horiz-adv-x="1327" d="M-4 1323h369l301 -526l301 526h368l-512 -815v-508h-317v504zM326 1419v226h223v-226h-223zM776 1419v226h221v-226h-221z" />
<glyph unicode="&#x2c6;" horiz-adv-x="673" d="M-27 1247q164 107 258 193h215q96 -86 259 -193l-70 -110q-164 33 -295 133q-131 -100 -297 -133z" />
<glyph unicode="&#x2dc;" horiz-adv-x="733" d="M-18 1229q35 86 101.5 141t147.5 55q57 0 142.5 -37.5t122.5 -37.5q84 0 147 82l109 -74q-37 -84 -102.5 -140.5t-149.5 -56.5q-57 0 -142.5 39t-121.5 39q-84 0 -146 -82z" />
<glyph unicode="&#x2000;" horiz-adv-x="857" />
<glyph unicode="&#x2001;" horiz-adv-x="1714" />
<glyph unicode="&#x2002;" horiz-adv-x="857" />
<glyph unicode="&#x2003;" horiz-adv-x="1714" />
<glyph unicode="&#x2004;" horiz-adv-x="571" />
<glyph unicode="&#x2005;" horiz-adv-x="428" />
<glyph unicode="&#x2006;" horiz-adv-x="285" />
<glyph unicode="&#x2007;" horiz-adv-x="285" />
<glyph unicode="&#x2008;" horiz-adv-x="214" />
<glyph unicode="&#x2009;" horiz-adv-x="342" />
<glyph unicode="&#x200a;" horiz-adv-x="95" />
<glyph unicode="&#x2010;" horiz-adv-x="817" d="M100 424v270h617v-270h-617z" />
<glyph unicode="&#x2011;" horiz-adv-x="817" d="M100 424v270h617v-270h-617z" />
<glyph unicode="&#x2012;" horiz-adv-x="817" d="M100 424v270h617v-270h-617z" />
<glyph unicode="&#x2013;" d="M80 477v252h1030v-252h-1030z" />
<glyph unicode="&#x2014;" horiz-adv-x="1810" d="M102 477v252h1606v-252h-1606z" />
<glyph unicode="&#x2018;" horiz-adv-x="524" d="M96 676v235q0 90 23.5 164t75 140.5t135.5 132.5l98 -123q-150 -94 -149 -228v-32h147v-289h-330z" />
<glyph unicode="&#x2019;" horiz-adv-x="483" d="M86 772q147 96 147 232v28h-143v291h328v-236q0 -90 -24.5 -163.5t-76 -140t-135.5 -132.5z" />
<glyph unicode="&#x201a;" horiz-adv-x="555" d="M109 -231q150 94 149 229v29h-145v290h327v-233q0 -135 -54 -236.5t-179 -199.5z" />
<glyph unicode="&#x201c;" horiz-adv-x="1003" d="M96 676v235q0 90 23.5 164t75 140.5t135.5 132.5l98 -123q-150 -94 -149 -228v-32h147v-289h-330zM575 676v233q0 137 55.5 239.5t182.5 199.5l94 -123q-145 -92 -145 -228v-32h143v-289h-330z" />
<glyph unicode="&#x201d;" horiz-adv-x="964" d="M86 772q147 96 147 232v28h-143v291h328v-236q0 -90 -24.5 -163.5t-76 -140t-135.5 -132.5zM567 772q147 96 148 232v28h-146v291h328v-236q0 -135 -54.5 -236t-178.5 -200z" />
<glyph unicode="&#x201e;" horiz-adv-x="1036" d="M109 -231q150 94 149 229v29h-145v290h327v-233q0 -135 -54 -236.5t-179 -199.5zM592 -231q147 94 147 229v29h-145v290h328v-233q0 -135 -54.5 -236.5t-179.5 -199.5z" />
<glyph unicode="&#x2022;" horiz-adv-x="792" d="M66 662q0 53 16 104t47 92t72 72t91 47t103 16q137 0 234.5 -97t97.5 -234q0 -88 -44 -165t-121 -121t-167 -44q-135 0 -232 97t-97 233z" />
<glyph unicode="&#x2026;" horiz-adv-x="1638" d="M115 0v322h327v-322h-327zM655 0v322h328v-322h-328zM1196 0v322h328v-322h-328z" />
<glyph unicode="&#x202f;" horiz-adv-x="342" />
<glyph unicode="&#x2039;" horiz-adv-x="577" d="M37 473v111l323 405l146 -108l-221 -353l221 -352l-146 -108z" />
<glyph unicode="&#x203a;" horiz-adv-x="577" d="M72 176l223 352l-223 353l147 108l322 -405v-111l-322 -405z" />
<glyph unicode="&#x205f;" horiz-adv-x="428" />
<glyph unicode="&#x20ac;" horiz-adv-x="1492" d="M76 469v133h131q-4 27 -4 62q0 31 4 53h-131v129h147q49 231 218 366.5t409 135.5q381 0 569 -330l-243 -146q-111 201 -314 201q-111 0 -192.5 -61.5t-116.5 -165.5h387v-129h-414q-4 -23 -4 -51q0 -37 4 -64h414v-133h-381q35 -100 116 -159.5t187 -59.5q104 0 178 54 t131 165l254 -137q-186 -356 -573 -357q-240 0 -408 133.5t-219 360.5h-149z" />
<glyph unicode="&#x2122;" horiz-adv-x="1492" d="M88 1174v149h535v-149h-193v-449h-156v449h-186zM702 725v598h211l129 -412l129 412h209v-598h-149v414l-133 -414h-111l-135 414v-414h-150z" />
<glyph unicode="&#x25fc;" horiz-adv-x="1064" d="M0 0v1065h1065v-1065h-1065z" />
</font>
</defs>
</svg>
